<?xml version="1.0" encoding="UTF-8"?>
<!-- Generated by Pixelmator Pro 3.6.18 -->
<svg width="801" height="597" viewBox="0 0 801 597" xmlns="http://www.w3.org/2000/svg">
    <path id="x" fill="#00c805" fill-rule="evenodd" stroke="none" d="M 800.625 72.143066 C 800.625 103.463867 784.566772 119.124023 752.449829 119.124023 C 724.225952 119.124023 710.114136 108.385773 710.114136 86.908173 C 710.114136 79.749512 716.926636 71.248047 730.552002 61.404297 C 734.445068 58.719727 736.391357 53.797852 736.391357 46.638672 C 736.391357 28.741211 724.226196 19.79248 699.89502 19.79248 C 665.831787 19.79248 625.929443 45.296387 580.187134 96.304718 C 551.963135 127.625519 531.525391 154.024414 518.873169 175.501465 C 505.247803 200.558594 489.67627 238.590332 472.157837 289.599121 L 460.478973 324.499023 C 437.121216 394.300293 425.442505 452.466797 425.442505 499.000977 C 425.442505 549.114258 445.880371 574.170898 486.7565 574.170898 C 514.980469 574.170898 544.42041 562.76123 575.077637 539.941406 C 605.734619 517.12207 630.795288 488.709961 650.260132 454.704102 C 661.938965 434.12207 670.697998 423.831055 676.537476 423.831055 C 681.403687 423.831055 683.836792 426.515625 683.836792 431.884766 C 683.836792 449.782715 669.238281 475.733887 640.041016 509.739258 C 589.432617 567.906738 528.605835 596.990234 457.559326 596.990234 C 363.155029 596.990234 315.953491 558.063477 315.953491 480.208496 C 315.953491 464.100586 317.41333 446.203125 320.33313 426.515625 C 285.296387 487.367676 250.990234 530.769043 217.41333 556.720703 C 183.836548 582.672363 145.637451 595.647949 102.814819 595.647949 C 34.687988 595.647949 0.625 568.354492 0.625 513.766602 C 0.625 495.868652 6.464355 480.655762 18.143311 468.127441 C 29.822142 455.599121 44.420532 449.334961 61.938969 449.334961 C 93.082642 449.334961 108.654175 461.863281 108.654175 486.919922 C 108.654175 498.553711 96.488892 512.871582 72.157837 529.874023 C 68.264893 530.769043 66.318481 535.243652 66.318481 543.297363 C 66.318481 562.984863 82.376709 572.828613 114.493645 572.828613 C 158.289551 572.828613 202.814575 545.535156 248.070313 490.946777 C 293.32605 436.358887 327.632202 369.243652 350.98999 289.599121 L 368.508301 230.536621 C 385.053345 175.053711 393.325806 135.679718 393.325806 112.412567 C 393.325806 60.509277 372.888062 34.558105 332.011963 34.558105 C 272.644165 34.558105 218.630127 69.458008 169.96814 139.25882 C 158.289185 155.366699 148.557007 163.420898 140.770996 163.420898 C 134.931519 163.420898 132.011963 160.288574 132.011963 154.024414 C 132.011963 140.601074 149.529907 117.334473 184.56665 84.223633 C 241.987793 29.635742 300.868042 2.342285 361.208984 2.342285 C 411.817505 2.342285 448.556793 13.080566 471.427948 34.558105 C 494.299194 56.035156 507.681 92.277374 511.573944 143.286133 C 575.807861 48.428223 642.473877 1 711.573975 1 C 737.85144 1 759.262451 7.711426 775.807617 21.134766 C 792.352539 34.558105 800.625 51.560547 800.625 72.143066 Z"/>
</svg>
